<svg id="eObXS5xfmen1" xmlns="http://www.w3.org/2000/svg" xmlns:xlink="http://www.w3.org/1999/xlink" viewBox="0 0 300 300" shape-rendering="geometricPrecision" text-rendering="geometricPrecision" project-id="05bc0aad7b3b4809926b02ceeffb5a12" export-id="cf91af339df54a1e9467e677abce07a6" cached="false"><path d="M38.16693,150C38.16693,88.23648,88.2363,38.16726,150,38.16726s111.83307,50.06922,111.83307,111.83274-50.06937,111.83274-111.83307,111.83274-111.83307-50.06922-111.83307-111.83274Z" fill="#1f2937" stroke-width="0"/><path d="M157.79878,197.80436h-.00001c0,4.30714-3.49163,7.79877-7.79877,7.79877s-7.79877-3.49163-7.79877-7.79877c0-.00312,0-.00624.00001-.00936v-39.99622h-40.00558v-.00001c-4.30714,0-7.79877-3.49163-7.79877-7.79877s3.49163-7.79877,7.79877-7.79877c.00388,0,.00776,0,.01164.00001h39.99394v-40.00277c0-.00094,0-.00188,0-.00281c0-4.30714,3.49163-7.79877,7.79877-7.79877s7.79877,3.49163,7.79877,7.79877v40.00558h40.00278c.00094,0,.00188,0,.00281,0c4.30714,0,7.79877,3.49163,7.79877,7.79877s-3.49163,7.79877-7.79877,7.79877h-40.00559v40.00558Z" fill="#fff" stroke-width="0" stroke-linecap="round"/></svg>
